<svg width="395" height="395" viewBox="0 0 395 395" fill="none" xmlns="http://www.w3.org/2000/svg">
<path d="M371.552 52.4932C370.335 52.4932 365.558 55.343 360.937 58.8271C347.114 69.2481 326.13 84.4932 325.609 84.4932C325.341 84.4932 323.577 83.4438 321.687 82.1612C312.1 75.6552 279.566 74.1268 251.888 78.8818C233.583 82.0264 224.429 84.3424 205.821 90.542C182.862 98.1916 157.703 110.854 140.556 123.39C135.076 127.396 132.764 128.493 129.794 128.493C119.319 128.493 96.0417 135.973 83.0266 143.522C64.3524 154.354 47.2462 171.299 39.4269 186.71C36.5146 192.45 36.4564 193.915 39.0344 196.493C40.921 198.38 42.3676 198.493 64.5461 198.493H88.0578L87.2961 202.743C86.8769 205.081 86.5873 213.068 86.6515 220.493C86.7868 236.096 88.7112 244.929 94.4641 256.353C96.4276 260.252 98.0344 263.806 98.0344 264.251C98.0344 264.696 96.5719 265.929 94.7844 266.989C92.164 268.544 89.5 268.936 81.0344 269.011C72.7584 269.083 69.3694 269.563 65.0344 271.278C54.581 275.414 44.8572 286.469 38.6027 301.329C35.734 308.145 35.3916 311.032 37.3625 311.788C41.2259 313.271 60.5743 307.241 70.4269 301.483C74.1826 299.289 77.4241 297.493 77.6301 297.493C78.3797 297.493 73.7981 308.134 70.7414 313.493C69.0159 316.518 64.7492 322.737 61.259 327.313C54.6288 336.006 53.5809 339.712 57.593 340.286C60.7829 340.742 76.7964 332.219 84.1086 326.173C91.5347 320.032 96.8992 313.217 100.495 305.351C103.06 299.74 105.574 286.667 104.718 283.394C104.444 282.344 105.009 280.509 105.976 279.315L107.734 277.144L115.126 282.927C126.552 291.867 139.896 297.9 154.034 300.519C165.581 302.657 181.275 302.062 197.284 298.88L200.034 298.333V319.413C200.034 339.212 200.155 340.614 202.048 342.507C204.562 345.021 207.264 344.501 215.7 339.872C229.988 332.033 244.311 319.271 254.775 305.06C264.802 291.44 273.017 269.757 274.566 252.819C275.231 245.537 275.573 244.646 279.491 239.993C306.488 207.941 328.816 161.269 335.464 122.993C337.268 112.605 337.439 106.394 336.054 101.563C335.403 99.2965 335.415 97.7386 336.084 96.9306C336.64 96.2611 345.967 89.0474 356.813 80.8994C367.658 72.7515 377.08 65.3884 377.75 64.538C378.42 63.6877 378.981 61.563 379 59.8154C379.038 56.2024 375.264 52.4932 371.552 52.4932ZM286.505 94.5908C291.687 94.5719 296.182 94.8357 299.542 95.4209C316.024 98.2911 319.717 105.666 315.107 126.509C301.572 187.697 254.585 257.573 211.034 273.431C111.861 309.542 81.3271 215.836 127.062 161.665C130.722 157.33 146.69 136.36 193.034 115.208C205.156 109.676 224.871 103.399 237.134 100.513C252.587 96.876 272.177 94.6461 286.505 94.5908ZM284.431 117.737C281.653 117.737 278.988 118.841 277.023 120.805C275.058 122.769 273.955 125.434 273.954 128.212C273.989 129.781 274.376 131.322 275.087 132.722C273.135 130.835 270.528 129.78 267.814 129.778C265.036 129.779 262.372 130.882 260.407 132.847C258.443 134.811 257.339 137.475 257.339 140.253C257.339 143.031 258.442 145.696 260.407 147.661C262.371 149.625 265.035 150.729 267.814 150.729C269.189 150.73 270.552 150.459 271.823 149.932C273.094 149.406 274.249 148.634 275.222 147.661C276.195 146.688 276.967 145.533 277.493 144.262C278.019 142.991 278.29 141.629 278.29 140.253C278.289 138.714 277.949 137.194 277.294 135.802C279.22 137.635 281.772 138.667 284.431 138.688C287.209 138.688 289.874 137.584 291.838 135.62C293.802 133.655 294.906 130.99 294.905 128.212C294.905 125.434 293.802 122.77 291.837 120.806C289.873 118.841 287.209 117.738 284.431 117.737Z" fill="#267331"/>
<path d="M248.83 199.951C249.197 170.076 222.528 146.315 191.5 150.709C173.563 153.249 158.003 167.442 153.69 185.197C145.77 217.795 176.658 251.219 209.713 245.82C230.531 242.42 245.609 226.898 248.391 206.002C248.662 203.962 248.806 201.943 248.83 199.951ZM239.117 199.256C239.148 209.011 235.45 218.666 228.071 226.053C219.732 234.399 209.313 237.341 198.854 234.301C192.103 232.338 185.412 226.68 182.344 220.342C179.658 214.793 179.568 203.933 182.16 198.24C184.314 193.51 190.78 187.398 195.893 185.262C200.55 183.316 206.577 183.318 210.344 185.265C212.717 186.493 213.293 187.444 213.293 190.131C213.293 194.921 216.604 198.74 220.756 198.74C225.19 198.74 228.199 196.098 229.293 191.246C230.858 184.306 228.162 176.076 222.043 169.107L218.832 165.449L221.947 167.06C223.661 167.947 226.896 170.751 229.133 173.293C235.774 180.837 239.089 190.092 239.117 199.256Z" fill="#3C2871"/>
<path d="M18.033 284.493C15.779 282.239 15.403 277.649 17.283 275.338C17.9705 274.493 23.033 270.431 28.533 266.311C71.619 234.039 71.6518 234.02 76.5785 238.947C79.4608 241.829 79.7361 245.47 77.283 248.266C75.4668 250.336 60.7057 261.495 38.8583 277.315C25.2168 287.193 21.8823 288.342 18.033 284.493Z" fill="#267331"/>
</svg>
